<svg width="32" height="32" viewBox="0 0 32 32" fill="none" xmlns="http://www.w3.org/2000/svg">
<path d="M22.667 2.66602H9.33366C5.65366 2.66602 2.66699 5.63935 2.66699 9.30602V17.2793V18.6127C2.66699 22.2793 5.65366 25.2527 9.33366 25.2527H11.3337C11.6937 25.2527 12.1737 25.4927 12.4003 25.786L14.4003 28.4393C15.2803 29.6127 16.7203 29.6127 17.6003 28.4393L19.6003 25.786C19.8537 25.4527 20.2537 25.2527 20.667 25.2527H22.667C26.347 25.2527 29.3337 22.2793 29.3337 18.6127V9.30602C29.3337 5.63935 26.347 2.66602 22.667 2.66602ZM10.667 15.9993C9.92033 15.9993 9.33366 15.3993 9.33366 14.666C9.33366 13.9327 9.93366 13.3327 10.667 13.3327C11.4003 13.3327 12.0003 13.9327 12.0003 14.666C12.0003 15.3993 11.4137 15.9993 10.667 15.9993ZM16.0003 15.9993C15.2537 15.9993 14.667 15.3993 14.667 14.666C14.667 13.9327 15.267 13.3327 16.0003 13.3327C16.7337 13.3327 17.3337 13.9327 17.3337 14.666C17.3337 15.3993 16.747 15.9993 16.0003 15.9993ZM21.3337 15.9993C20.587 15.9993 20.0003 15.3993 20.0003 14.666C20.0003 13.9327 20.6003 13.3327 21.3337 13.3327C22.067 13.3327 22.667 13.9327 22.667 14.666C22.667 15.3993 22.0803 15.9993 21.3337 15.9993Z" fill="#FFC18E"/>
</svg>
